<svg width="48" height="48" viewBox="0 0 48 48" fill="none" xmlns="http://www.w3.org/2000/svg">
<circle cx="24" cy="24" r="18" fill="#1ED760"/>
<path d="M33.6186 22.0644C28.1848 18.8172 19.2217 18.5187 14.0345 20.103C13.2015 20.3572 12.3206 19.8841 12.0682 19.0459C11.8158 18.2073 12.2856 17.3216 13.1192 17.0667C19.0737 15.2478 28.9725 15.5992 35.228 19.3358C35.9772 19.7832 36.223 20.7569 35.779 21.5096C35.3345 22.2635 34.3661 22.512 33.6186 22.0644ZM33.4407 26.8738C33.0594 27.4963 32.2506 27.6916 31.6328 27.3093C27.1027 24.5074 20.1948 23.6958 14.8352 25.3326C14.1402 25.5441 13.406 25.1497 13.1951 24.4517C12.9855 23.7523 13.3777 23.015 14.0713 22.8023C20.194 20.9329 27.8052 21.8383 33.0083 25.0557C33.6261 25.4385 33.8205 26.253 33.4407 26.8738ZM31.378 31.4927C31.0751 31.9926 30.4283 32.1492 29.9333 31.8445C25.9746 29.41 20.9921 28.8603 15.1243 30.2089C14.5589 30.3394 13.9954 29.9829 13.8664 29.4139C13.737 28.8451 14.0898 28.278 14.6567 28.1481C21.0779 26.6711 26.5861 27.3067 31.0294 30.0388C31.5247 30.3432 31.6808 30.9944 31.378 31.4927Z" fill="white"/>
</svg>
