<svg xmlns="http://www.w3.org/2000/svg" style="display:none">

  <symbol id="play_pl" viewBox="0 0 24 24">
    <path d="m7.05 3.606 13.49 7.788a.7.7 0 0 1 0 1.212L7.05 20.394A.7.7 0 0 1 6 19.788V4.212a.7.7 0 0 1 1.05-.606"></path>
  </symbol>

  <symbol id="pause_pl" viewBox="0 0 24 24">
    <path d="M5.7 3a.7.7 0 0 0-.7.7v16.6a.7.7 0 0 0 .7.7h2.6a.7.7 0 0 0 .7-.7V3.7a.7.7 0 0 0-.7-.7zm10 0a.7.7 0 0 0-.7.7v16.6a.7.7 0 0 0 .7.7h2.6a.7.7 0 0 0 .7-.7V3.7a.7.7 0 0 0-.7-.7z"></path>
  </symbol>

  <symbol id="shuffle" viewBox="0 0 16 16">
    <path d="M13.151.922a.75.75 0 1 0-1.06 1.06L13.109 3H11.16a3.75 3.75 0 0 0-2.873 1.34l-6.173 7.356A2.25 2.25 0 0 1 .39 12.5H0V14h.391a3.75 3.75 0 0 0 2.873-1.34l6.173-7.356a2.25 2.25 0 0 1 1.724-.804h1.947l-1.017 1.018a.75.75 0 0 0 1.06 1.06L15.98 3.75zM.391 3.5H0V2h.391c1.109 0 2.16.49 2.873 1.34L4.89 5.277l-.979 1.167-1.796-2.14A2.25 2.25 0 0 0 .39 3.5z"></path><path d="m7.5 10.723.98-1.167.957 1.14a2.25 2.25 0 0 0 1.724.804h1.947l-1.017-1.018a.75.75 0 1 1 1.06-1.06l2.829 2.828-2.829 2.828a.75.75 0 1 1-1.06-1.06L13.109 13H11.16a3.75 3.75 0 0 1-2.873-1.34l-.787-.938z"></path>
  </symbol>

  <symbol id="prev_track" viewBox="0 0 16 16">
    <path d="M3.3 1a.7.7 0 0 1 .7.7v5.15l9.95-5.744a.7.7 0 0 1 1.05.606v12.575a.7.7 0 0 1-1.05.607L4 9.149V14.3a.7.7 0 0 1-.7.7H1.7a.7.7 0 0 1-.7-.7V1.7a.7.7 0 0 1 .7-.7z"></path>
  </symbol>

  <symbol id="next_track" viewBox="0 0 16 16">
    <path d="M12.7 1a.7.7 0 0 0-.7.7v5.15L2.05 1.107A.7.7 0 0 0 1 1.712v12.575a.7.7 0 0 0 1.05.607L12 9.149V14.3a.7.7 0 0 0 .7.7h1.6a.7.7 0 0 0 .7-.7V1.7a.7.7 0 0 0-.7-.7z"></path>
  </symbol>

  <symbol id="repeat" viewBox="0 0 16 16">
    <path d="M0 4.75A3.75 3.75 0 0 1 3.75 1h8.5A3.75 3.75 0 0 1 16 4.75v5a3.75 3.75 0 0 1-3.75 3.75H9.81l1.018 1.018a.75.75 0 1 1-1.06 1.06L6.939 12.75l2.829-2.828a.75.75 0 1 1 1.06 1.06L9.811 12h2.439a2.25 2.25 0 0 0 2.25-2.25v-5a2.25 2.25 0 0 0-2.25-2.25h-8.5A2.25 2.25 0 0 0 1.5 4.75v5A2.25 2.25 0 0 0 3.75 12H5v1.5H3.75A3.75 3.75 0 0 1 0 9.75z"></path>
  </symbol>

  <symbol id="repeat" viewBox="0 0 16 16">
    <path d="M9.741.85a.75.75 0 0 1 .375.65v13a.75.75 0 0 1-1.125.65l-6.925-4a3.64 3.64 0 0 1-1.33-4.967 3.64 3.64 0 0 1 1.33-1.332l6.925-4a.75.75 0 0 1 .75 0zm-6.924 5.3a2.14 2.14 0 0 0 0 3.7l5.8 3.35V2.8zm8.683 4.29V5.56a2.75 2.75 0 0 1 0 4.88"></path>
  </symbol>

    <symbol id="repeat_track" viewBox="0 0 16 16">
    <path d="M0 4.75A3.75 3.75 0 0 1 3.75 1h.75v1.5h-.75A2.25 2.25 0 0 0 1.5 4.75v5A2.25 2.25 0 0 0 3.75 12H5v1.5H3.75A3.75 3.75 0 0 1 0 9.75zM12.25 2.5a2.25 2.25 0 0 1 2.25 2.25v5A2.25 2.25 0 0 1 12.25 12H9.81l1.018-1.018a.75.75 0 0 0-1.06-1.06L6.939 12.75l2.829 2.828a.75.75 0 1 0 1.06-1.06L9.811 13.5h2.439A3.75 3.75 0 0 0 16 9.75v-5A3.75 3.75 0 0 0 12.25 1h-.75v1.5z"></path><path d="m8 1.85.77.694H6.095V1.488q1.046-.077 1.507-.385.474-.308.583-.913h1.32V8H8z"></path><path d="M8.77 2.544 8 1.85v.693z"></path>
  </symbol>

  <symbol id="play" viewBox="0 0 16 16">
    <path d="M3 1.713a.7.7 0 0 1 1.05-.607l10.89 6.288a.7.7 0 0 1 0 1.212L4.05 14.894A.7.7 0 0 1 3 14.288z"></path>
  </symbol>

  <symbol id="pause" viewBox="0 0 16 16">
    <path d="M2.7 1a.7.7 0 0 0-.7.7v12.6a.7.7 0 0 0 .7.7h2.6a.7.7 0 0 0 .7-.7V1.7a.7.7 0 0 0-.7-.7zm8 0a.7.7 0 0 0-.7.7v12.6a.7.7 0 0 0 .7.7h2.6a.7.7 0 0 0 .7-.7V1.7a.7.7 0 0 0-.7-.7z"></path>
  </symbol>

  <symbol id="volume_0" viewBox="0 0 16 16">
    <path d="M13.86 5.47a.75.75 0 0 0-1.061 0l-1.47 1.47-1.47-1.47A.75.75 0 0 0 8.8 6.53L10.269 8l-1.47 1.47a.75.75 0 1 0 1.06 1.06l1.47-1.47 1.47 1.47a.75.75 0 0 0 1.06-1.06L12.39 8l1.47-1.47a.75.75 0 0 0 0-1.06"></path><path d="M10.116 1.5A.75.75 0 0 0 8.991.85l-6.925 4a3.64 3.64 0 0 0-1.33 4.967 3.64 3.64 0 0 0 1.33 1.332l6.925 4a.75.75 0 0 0 1.125-.649v-1.906a4.7 4.7 0 0 1-1.5-.694v1.3L2.817 9.852a2.14 2.14 0 0 1-.781-2.92c.187-.324.456-.594.78-.782l5.8-3.35v1.3c.45-.313.956-.55 1.5-.694z"></path>
  </symbol>

  <symbol id="volume_0_33" viewBox="0 0 16 16">
    <path d="M9.741.85a.75.75 0 0 1 .375.65v13a.75.75 0 0 1-1.125.65l-6.925-4a3.64 3.64 0 0 1-1.33-4.967 3.64 3.64 0 0 1 1.33-1.332l6.925-4a.75.75 0 0 1 .75 0zm-6.924 5.3a2.14 2.14 0 0 0 0 3.7l5.8 3.35V2.8zm8.683 4.29V5.56a2.75 2.75 0 0 1 0 4.88"></path>
  </symbol>

  <symbol id="volume_33_67" viewBox="0 0 16 16">
    <path d="M9.741.85a.75.75 0 0 1 .375.65v13a.75.75 0 0 1-1.125.65l-6.925-4a3.64 3.64 0 0 1-1.33-4.967 3.64 3.64 0 0 1 1.33-1.332l6.925-4a.75.75 0 0 1 .75 0zm-6.924 5.3a2.14 2.14 0 0 0 0 3.7l5.8 3.35V2.8zm8.683 6.087a4.502 4.502 0 0 0 0-8.474v1.65a3 3 0 0 1 0 5.175z"></path>
  </symbol>

  <symbol id="volume_67_100" viewBox="0 0 16 16">
    <path d="M9.741.85a.75.75 0 0 1 .375.65v13a.75.75 0 0 1-1.125.65l-6.925-4a3.64 3.64 0 0 1-1.33-4.967 3.64 3.64 0 0 1 1.33-1.332l6.925-4a.75.75 0 0 1 .75 0zm-6.924 5.3a2.14 2.14 0 0 0 0 3.7l5.8 3.35V2.8zm8.683 4.29V5.56a2.75 2.75 0 0 1 0 4.88"></path><path d="M11.5 13.614a5.752 5.752 0 0 0 0-11.228v1.55a4.252 4.252 0 0 1 0 8.127z"></path>
  </symbol>

  <symbol id="duration" viewBox="0 0 16 16">
    <path d="M8 1.5a6.5 6.5 0 1 0 0 13 6.5 6.5 0 0 0 0-13M0 8a8 8 0 1 1 16 0A8 8 0 0 1 0 8"></path><path d="M8 3.25a.75.75 0 0 1 .75.75v3.25H11a.75.75 0 0 1 0 1.5H7.25V4A.75.75 0 0 1 8 3.25"></path>
  </symbol>

  <symbol id="device" viewBox="0 0 16 16">
    <path d="M2 3.75C2 2.784 2.784 2 3.75 2h8.5c.966 0 1.75.784 1.75 1.75v6.5A1.75 1.75 0 0 1 12.25 12h-8.5A1.75 1.75 0 0 1 2 10.25zm1.75-.25a.25.25 0 0 0-.25.25v6.5c0 .138.112.25.25.25h8.5a.25.25 0 0 0 .25-.25v-6.5a.25.25 0 0 0-.25-.25zM.25 15.25A.75.75 0 0 1 1 14.5h14a.75.75 0 0 1 0 1.5H1a.75.75 0 0 1-.75-.75"></path>
  </symbol>

  <symbol id="add" viewBox="0 0 16 16">
    <path d="M15.25 8a.75.75 0 0 1-.75.75H8.75v5.75a.75.75 0 0 1-1.5 0V8.75H1.5a.75.75 0 0 1 0-1.5h5.75V1.5a.75.75 0 0 1 1.5 0v5.75h5.75a.75.75 0 0 1 .75.75"></path>
  </symbol>

</svg>
